<?xml version="1.0" encoding="UTF-8" standalone="no"?>
<!DOCTYPE svg PUBLIC "-//W3C//DTD SVG 1.1//EN" "http://www.w3.org/Graphics/SVG/1.1/DTD/svg11.dtd">
<svg width="100%" height="100%" viewBox="0 0 500 500" version="1.1" xmlns="http://www.w3.org/2000/svg" xmlns:xlink="http://www.w3.org/1999/xlink" xml:space="preserve" xmlns:serif="http://www.serif.com/" style="fill-rule:evenodd;clip-rule:evenodd;stroke-linejoin:round;stroke-miterlimit:2;">
    <g id="Mute" transform="matrix(1,0,0,1,0.169573,-0.924101)">
        <path d="M320.661,49.169C320.661,46.504 319.247,44.04 316.947,42.695C314.647,41.35 311.806,41.326 309.484,42.632C273.448,62.902 161.379,125.941 139.236,138.397C136.874,139.725 135.413,142.224 135.413,144.933L135.413,356.915C135.413,359.624 136.874,362.123 139.236,363.452C161.379,375.907 273.448,438.946 309.484,459.216C311.806,460.523 314.647,460.499 316.947,459.153C319.247,457.808 320.661,455.344 320.661,452.679L320.661,49.169ZM113.8,148.047C113.8,146.058 113.01,144.15 111.604,142.744C110.197,141.337 108.289,140.547 106.3,140.547L50.288,140.547C48.299,140.547 46.392,141.337 44.985,142.744C43.579,144.15 42.788,146.058 42.788,148.047L42.788,353.801C42.788,355.79 43.579,357.698 44.985,359.104C46.392,360.511 48.299,361.301 50.288,361.301L106.3,361.301C108.289,361.301 110.197,360.511 111.604,359.104C113.01,357.698 113.8,355.79 113.8,353.801L113.8,148.047ZM408,231.88L380.997,204.878C375.997,199.878 367.878,199.878 362.878,204.878C357.878,209.878 357.878,217.997 362.878,222.997L389.88,250L362.878,277.003C357.878,282.003 357.878,290.122 362.878,295.122C367.878,300.122 375.997,300.122 380.997,295.122L408,268.12L435.003,295.122C440.003,300.122 448.122,300.122 453.122,295.122C458.122,290.122 458.122,282.003 453.122,277.003L426.12,250L453.122,222.997C458.122,217.997 458.122,209.878 453.122,204.878C448.122,199.878 440.003,199.878 435.003,204.878L408,231.88Z" style="fill:url(#_Linear1);"/>
    </g>
    <defs>
        <linearGradient id="_Linear1" x1="0" y1="0" x2="1" y2="0" gradientUnits="userSpaceOnUse" gradientTransform="matrix(500,-500,500,500,-0.169573,500.924)"><stop offset="0" style="stop-color:rgb(255,255,255);stop-opacity:1"/><stop offset="1" style="stop-color:rgb(58,227,138);stop-opacity:1"/></linearGradient>
    </defs>
</svg>
